<svg width="144" height="38" viewBox="0 0 144 38" fill="none" xmlns="http://www.w3.org/2000/svg">
<path d="M4.47 28.83C5.73 28.63 6.5 28.43 6.78 28.23C7.06 28.01 7.2 27.59 7.2 26.97V10.77C4.62 10.81 3.24 10.87 3.06 10.95C2.88 11.03 2.74 11.12 2.64 11.22C2.4 11.54 2.11 12.67 1.77 14.61L0.24 14.49C0.22 14.19 0.21 13.61 0.21 12.75C0.21 11.87 0.3 10.69 0.48 9.21H16.83C17.01 10.69 17.1 11.87 17.1 12.75C17.1 13.61 17.09 14.19 17.07 14.49L15.54 14.61C15.2 12.67 14.9 11.54 14.64 11.22C14.56 11.12 14.43 11.03 14.25 10.95C14.07 10.87 12.69 10.81 10.11 10.77V27.69C10.11 28.15 10.31 28.41 10.71 28.47L13.02 28.83L12.9 30H4.65L4.47 28.83Z" fill="#45E0D8"/>
<path d="M67.856 31.288C65.3173 31.288 63.3547 30.456 61.968 28.792C60.6027 27.1067 59.92 24.92 59.92 22.232C59.92 18.1787 60.944 14.8827 62.992 12.344C65.0613 9.80533 67.9093 8.536 71.536 8.536C74.0747 8.536 76.0373 9.368 77.424 11.032C78.8107 12.6747 79.504 14.7973 79.504 17.4C79.504 21.4747 78.4693 24.8133 76.4 27.416C74.3307 29.9973 71.4827 31.288 67.856 31.288ZM68.592 29.592C69.9147 29.592 71.0773 29.2187 72.08 28.472C73.0827 27.704 73.8507 26.712 74.384 25.496C75.3867 23.1067 75.888 20.6747 75.888 18.2C75.888 15.704 75.4507 13.752 74.576 12.344C73.7013 10.936 72.432 10.232 70.768 10.232C69.7013 10.232 68.752 10.4773 67.92 10.968C66.384 11.864 65.264 13.3573 64.56 15.448C63.856 17.5173 63.504 19.672 63.504 21.912C63.504 24.152 63.9413 25.9973 64.816 27.448C65.6907 28.8773 66.9493 29.592 68.592 29.592Z" fill="#45E0D8"/>
<path d="M21.768 29.616C22.6 29.616 23.392 29.4 24.144 28.968C24.896 28.536 25.52 27.944 26.016 27.192V28.416C25.424 29.072 24.776 29.552 24.072 29.856C23.368 30.144 22.568 30.288 21.672 30.288C20.68 30.288 19.744 30.024 18.864 29.496C18 28.968 17.304 28.264 16.776 27.384C16.264 26.504 16.008 25.568 16.008 24.576C16.008 23.504 16.264 22.544 16.776 21.696C17.288 20.832 17.984 20.16 18.864 19.68C19.76 19.2 20.752 18.96 21.84 18.96C23.504 18.96 24.92 19.616 26.088 20.928L18.552 28.368C19.08 28.8 19.592 29.12 20.088 29.328C20.584 29.52 21.144 29.616 21.768 29.616ZM16.776 24.504C16.776 25.832 17.216 26.968 18.096 27.912L25.128 20.928C24.6 20.464 24.088 20.136 23.592 19.944C23.096 19.736 22.504 19.632 21.816 19.632C20.84 19.632 19.968 19.848 19.2 20.28C18.448 20.696 17.856 21.272 17.424 22.008C16.992 22.744 16.776 23.576 16.776 24.504ZM28.4886 19.2H29.2566V20.832C29.9926 19.568 31.1766 18.936 32.8086 18.936C33.5926 18.936 34.2726 19.16 34.8486 19.608C35.4246 20.04 35.8246 20.696 36.0486 21.576C36.2566 20.792 36.7126 20.16 37.4166 19.68C38.1366 19.184 38.9446 18.936 39.8406 18.936C41.0086 18.936 41.9126 19.28 42.5526 19.968C43.1926 20.64 43.5126 21.6 43.5126 22.848V30H42.7446V22.848C42.7446 21.84 42.4806 21.048 41.9526 20.472C41.4406 19.896 40.7606 19.608 39.9126 19.608C39.2726 19.608 38.6806 19.768 38.1366 20.088C37.5926 20.392 37.1606 20.808 36.8406 21.336C36.5206 21.864 36.3606 22.448 36.3606 23.088V30H35.5926V23.28C35.5926 22.128 35.3206 21.232 34.7766 20.592C34.2326 19.936 33.5286 19.608 32.6646 19.608C32.0886 19.608 31.5366 19.752 31.0086 20.04C30.4966 20.328 30.0726 20.72 29.7366 21.216C29.4166 21.696 29.2566 22.224 29.2566 22.8V30H28.4886V19.2ZM46.5354 19.2H47.3034V21.84C47.7354 20.976 48.4074 20.28 49.3194 19.752C50.2314 19.208 51.1914 18.936 52.1994 18.936C53.2394 18.936 54.1914 19.192 55.0554 19.704C55.9354 20.216 56.6314 20.904 57.1434 21.768C57.6554 22.632 57.9114 23.576 57.9114 24.6C57.9114 25.624 57.6554 26.568 57.1434 27.432C56.6314 28.296 55.9354 28.984 55.0554 29.496C54.1914 30.008 53.2394 30.264 52.1994 30.264C51.2234 30.264 50.2794 30 49.3674 29.472C48.4714 28.944 47.7834 28.248 47.3034 27.384V34.8H46.5354V19.2ZM52.2474 29.592C53.1274 29.592 53.9434 29.368 54.6954 28.92C55.4474 28.456 56.0394 27.848 56.4714 27.096C56.9194 26.328 57.1434 25.496 57.1434 24.6C57.1434 23.72 56.9194 22.896 56.4714 22.128C56.0234 21.36 55.4234 20.752 54.6714 20.304C53.9194 19.84 53.1034 19.608 52.2234 19.608C51.3434 19.608 50.5194 19.84 49.7514 20.304C48.9994 20.768 48.3914 21.384 47.9274 22.152C47.4794 22.92 47.2554 23.744 47.2554 24.624C47.2554 25.504 47.4794 26.328 47.9274 27.096C48.3914 27.848 49.0074 28.456 49.7754 28.92C50.5434 29.368 51.3674 29.592 52.2474 29.592ZM93.8184 30H93.0504V19.872H87.8664V30H87.0984V19.872H82.1784V30H81.4104V18.744C81.4104 17.992 81.5864 17.312 81.9384 16.704C82.3064 16.08 82.8024 15.592 83.4264 15.24C84.0664 14.872 84.7624 14.688 85.5144 14.688V15.36C84.9064 15.36 84.3464 15.512 83.8344 15.816C83.3224 16.104 82.9144 16.512 82.6104 17.04C82.3224 17.552 82.1784 18.12 82.1784 18.744V19.2H87.0984V18.744C87.0984 17.992 87.2744 17.312 87.6264 16.704C87.9944 16.08 88.4904 15.592 89.1144 15.24C89.7544 14.872 90.4504 14.688 91.2024 14.688V15.36C90.5944 15.36 90.0344 15.512 89.5224 15.816C89.0104 16.104 88.6024 16.512 88.2984 17.04C88.0104 17.552 87.8664 18.12 87.8664 18.744V19.2H93.8184V30ZM93.4344 15.072C93.6584 15.072 93.8504 15.152 94.0104 15.312C94.1864 15.472 94.2744 15.664 94.2744 15.888C94.2744 16.128 94.1864 16.328 94.0104 16.488C93.8504 16.648 93.6584 16.728 93.4344 16.728C93.2104 16.728 93.0104 16.648 92.8344 16.488C92.6744 16.328 92.5944 16.128 92.5944 15.888C92.5944 15.664 92.6744 15.472 92.8344 15.312C93.0104 15.152 93.2104 15.072 93.4344 15.072ZM102.483 30.312C101.443 30.312 100.483 30.064 99.6028 29.568C98.7388 29.072 98.0508 28.392 97.5388 27.528C97.0268 26.664 96.7708 25.688 96.7708 24.6C96.7708 23.592 97.0268 22.664 97.5388 21.816C98.0508 20.952 98.7468 20.264 99.6268 19.752C100.523 19.24 101.507 18.984 102.579 18.984C103.475 18.984 104.243 19.128 104.883 19.416C105.523 19.704 106.147 20.152 106.755 20.76V22.056C106.227 21.272 105.635 20.68 104.979 20.28C104.339 19.864 103.539 19.656 102.579 19.656C101.699 19.656 100.867 19.888 100.083 20.352C99.3148 20.8 98.6988 21.408 98.2348 22.176C97.7708 22.944 97.5388 23.768 97.5388 24.648C97.5388 25.608 97.7628 26.472 98.2108 27.24C98.6588 27.992 99.2588 28.584 100.011 29.016C100.779 29.432 101.603 29.64 102.483 29.64C104.275 29.64 105.699 28.832 106.755 27.216V28.512C106.179 29.12 105.539 29.576 104.835 29.88C104.147 30.168 103.363 30.312 102.483 30.312ZM114.37 29.616C115.202 29.616 115.994 29.4 116.746 28.968C117.498 28.536 118.122 27.944 118.618 27.192V28.416C118.026 29.072 117.378 29.552 116.674 29.856C115.97 30.144 115.17 30.288 114.274 30.288C113.282 30.288 112.346 30.024 111.466 29.496C110.602 28.968 109.906 28.264 109.378 27.384C108.866 26.504 108.61 25.568 108.61 24.576C108.61 23.504 108.866 22.544 109.378 21.696C109.89 20.832 110.586 20.16 111.466 19.68C112.362 19.2 113.354 18.96 114.442 18.96C116.106 18.96 117.522 19.616 118.69 20.928L111.154 28.368C111.682 28.8 112.194 29.12 112.69 29.328C113.186 29.52 113.746 29.616 114.37 29.616ZM109.378 24.504C109.378 25.832 109.818 26.968 110.698 27.912L117.73 20.928C117.202 20.464 116.69 20.136 116.194 19.944C115.698 19.736 115.106 19.632 114.418 19.632C113.442 19.632 112.57 19.848 111.802 20.28C111.05 20.696 110.458 21.272 110.026 22.008C109.594 22.744 109.378 23.576 109.378 24.504Z" fill="#45E0D8"/>
<rect x="73.8085" y="15.0646" width="9.35598" height="1" rx="0.5" transform="rotate(124.372 73.8085 15.0646)" fill="#45E0D8"/>
<rect x="74.8476" y="16.1754" width="8.01018" height="1" rx="0.5" transform="rotate(124.372 74.8476 16.1754)" fill="#45E0D8"/>
<path d="M68.6039 22.3802C68.3815 22.5568 68.0517 22.5248 67.8675 22.3086L65.8336 19.9225C65.6494 19.7063 65.6803 19.3879 65.9028 19.2112C66.1253 19.0346 66.455 19.0667 66.6392 19.2828L68.6731 21.6689C68.8574 21.8851 68.8264 22.2036 68.6039 22.3802Z" fill="#45E0D8"/>
</svg>
